<svg xmlns="http://www.w3.org/2000/svg" xmlns:xlink="http://www.w3.org/1999/xlink" width="1080" zoomAndPan="magnify" viewBox="0 0 810 809.999993" height="1080" preserveAspectRatio="xMidYMid meet" version="1.2"><defs><clipPath id="8600c89ba8"><path d="M 281.214844 116.511719 L 529 116.511719 L 529 693.859375 L 281.214844 693.859375 Z M 281.214844 116.511719 "/></clipPath><clipPath id="672692d3a7"><path d="M 515.398438 658.078125 C 521.746094 653.117188 529.71875 649.234375 528.535156 639.621094 C 526.605469 624.15625 491.128906 606.007812 479.53125 595.472656 C 477.136719 593.300781 474.671875 590.800781 472.894531 588.082031 C 472.464844 586.371094 486.5625 576.914062 481.667969 568.632812 C 478.878906 563.878906 472.210938 567.589844 469.710938 564.101562 C 449.769531 512.957031 437.230469 457.878906 437.949219 402.664062 C 460.390625 408.238281 476.144531 388.960938 451.972656 375.894531 C 457.925781 368.433594 453.871094 356.804688 442.976562 358.90625 C 442.804688 357.914062 442.515625 356.90625 442.292969 355.914062 C 442.105469 354.835938 441.214844 348.386719 441.335938 347.996094 C 441.726562 346.609375 446.945312 345.070312 446.980469 341.289062 C 446.980469 337.21875 442.582031 337.285156 441.300781 335.472656 C 438.050781 330.90625 441.984375 297.175781 443.300781 289.785156 C 449.117188 256.585938 464 223.46875 482.625 195.636719 L 483.839844 193.996094 C 477.734375 188.214844 469.78125 182.964844 461.28125 186.675781 C 460.953125 186.8125 460.527344 187.085938 460.066406 187.410156 C 460.082031 186.710938 460.152344 185.992188 460.304688 185.308594 C 462.769531 174.101562 464.253906 169.449219 466.769531 157.476562 C 466.957031 156.65625 467.316406 156.363281 468.070312 156.261719 C 470.039062 155.902344 471.730469 154.996094 473.253906 153.746094 C 475.324219 152.054688 476.316406 149.695312 477.066406 147.214844 C 477.066406 146.1875 477.101562 145.210938 477.101562 144.21875 C 477.066406 144.03125 476.914062 143.808594 476.878906 143.621094 C 476.074219 138.710938 471.882812 134.863281 467.042969 134.453125 C 462.578125 134.078125 458.441406 136.214844 456.148438 140.335938 C 454.113281 144.101562 454.523438 148.941406 457.292969 152.277344 C 458.148438 153.269531 459.140625 154.089844 460.167969 155.082031 C 456.609375 162.917969 452.109375 170.152344 444.722656 175.113281 C 443.472656 175.933594 442.171875 176.617188 440.871094 177.183594 C 439.503906 177.695312 438.035156 178.003906 436.546875 178.105469 C 430.867188 178.464844 426.539062 175.917969 422.945312 171.828125 C 418.398438 166.664062 415.78125 160.453125 413.746094 154.054688 C 413.195312 152.207031 412.734375 150.328125 412.222656 148.515625 L 411.109375 144.050781 C 417.164062 140.988281 417.933594 140.472656 419.679688 137.738281 C 421.714844 134.589844 422.296875 131.117188 421.5625 127.492188 C 420.382812 121.640625 414.925781 116.921875 409.109375 116.542969 C 402.761719 116.132812 396.84375 119.949219 394.84375 125.882812 C 393.851562 128.792969 393.851562 131.800781 394.878906 134.777344 C 396.398438 139.328125 399.71875 142.269531 404.234375 143.757812 C 403.71875 145.761719 403.207031 147.742188 402.609375 149.675781 C 401.101562 154.671875 399.238281 159.425781 396.621094 163.941406 C 394.742188 167.261719 392.550781 170.339844 389.609375 172.804688 C 385.367188 176.394531 380.765625 177.867188 375.683594 176.566406 C 374.863281 176.378906 373.972656 176.054688 373.066406 175.746094 C 370.195312 174.511719 367.816406 172.597656 365.644531 170.390625 C 360.992188 165.738281 357.84375 160.164062 355.296875 154.175781 C 354.886719 153.21875 354.816406 152.703125 355.808594 151.96875 C 360.066406 149.042969 361.640625 143.433594 359.570312 138.78125 C 357.46875 133.941406 352.371094 131.167969 347.34375 132.160156 C 342.246094 133.152344 338.394531 137.703125 338.292969 142.886719 C 338.226562 148.050781 341.730469 152.566406 346.929688 153.78125 C 347.597656 153.9375 347.976562 154.191406 348.078125 154.996094 C 350.214844 167.328125 350.847656 173.8125 352.882812 185.53125 C 352.988281 186.109375 353.039062 186.726562 353.039062 187.324219 L 353.039062 189.855469 C 351.480469 188.609375 349.71875 187.121094 348.691406 186.691406 C 340.207031 182.980469 332.238281 188.230469 326.132812 194.011719 L 327.347656 195.65625 C 346.007812 223.46875 360.890625 256.585938 366.703125 289.785156 C 368.023438 297.175781 371.957031 330.90625 368.707031 335.472656 C 367.421875 337.285156 363.027344 337.21875 363.027344 341.289062 C 363.0625 345.070312 368.277344 346.609375 368.671875 347.996094 C 368.773438 348.386719 367.886719 354.855469 367.714844 355.914062 C 367.492188 356.90625 367.21875 357.914062 367.03125 358.90625 C 356.152344 356.804688 352.078125 368.433594 358.03125 375.894531 C 333.863281 388.960938 349.617188 408.222656 372.058594 402.664062 C 372.777344 457.878906 360.238281 512.957031 340.292969 564.101562 C 337.796875 567.609375 331.125 563.894531 328.339844 568.632812 C 323.445312 576.914062 337.539062 586.371094 337.113281 588.082031 C 335.332031 590.785156 332.871094 593.300781 330.476562 595.472656 C 318.878906 606.007812 283.402344 624.175781 281.46875 639.621094 C 280.289062 649.214844 288.242188 653.117188 294.605469 658.078125 C 278.152344 662.386719 280.941406 680.3125 282.257812 693.484375 L 527.75 693.484375 C 529.066406 680.3125 531.855469 662.40625 515.398438 658.078125 "/></clipPath></defs><g id="ded97da9fe"><g clip-rule="nonzero" clip-path="url(#8600c89ba8)"><g clip-rule="nonzero" clip-path="url(#672692d3a7)"><path style=" stroke:none;fill-rule:nonzero;fill:#ffb01b;fill-opacity:1;" d="M 281.214844 116.511719 L 528.785156 116.511719 L 528.785156 693.859375 L 281.214844 693.859375 Z M 281.214844 116.511719 "/></g></g></g></svg>